<?xml version="1.0" encoding="UTF-8" standalone="no"?>
<svg
   viewBox="0 0 512 512"
   version="1.1"
   id="svg1"
   sodipodi:docname="timeflow-logo-maskable.svg"
   inkscape:version="1.4.3 (0d15f75042, 2025-12-25)"
   xmlns:inkscape="http://www.inkscape.org/namespaces/inkscape"
   xmlns:sodipodi="http://sodipodi.sourceforge.net/DTD/sodipodi-0.dtd"
   xmlns="http://www.w3.org/2000/svg"
   xmlns:svg="http://www.w3.org/2000/svg">
  <defs
     id="defs1" />
  <sodipodi:namedview
     id="namedview1"
     pagecolor="#ffffff"
     bordercolor="#000000"
     borderopacity="0.25"
     inkscape:showpageshadow="2"
     inkscape:pageopacity="0.0"
     inkscape:pagecheckerboard="0"
     inkscape:deskcolor="#d1d1d1"
     inkscape:zoom="1.1214272"
     inkscape:cx="166.7518"
     inkscape:cy="235.86016"
     inkscape:window-width="1920"
     inkscape:window-height="1016"
     inkscape:window-x="0"
     inkscape:window-y="426"
     inkscape:window-maximized="1"
     inkscape:current-layer="svg1" />
  <!-- Background (fills entire canvas for maskable icons) -->
  <rect width="512" height="512" fill="#FFFFFF" id="background" />
  <!-- Logo circle (smaller to fit in safe zone - 80% of canvas) -->
  <!-- TF Text - replace this with your custom logo design -->
  <!--
    MASKABLE ICON NOTE:
    Keep important content within the center 80% (safe zone)
    The outer 10% on each side may be cropped on some devices
  -->
  <g
     id="g2"
     transform="matrix(9.4098298,0,0,9.4098298,-324.47035,-224.73986)">
    <path
       style="fill:#1973d2;fill-opacity:1"
       d="m 48.938024,76.684196 c -3.25729,-0.69069 -5.54971,-3.60609 -5.52948,-7.032149 0.013,-2.20771 0.6861,-3.787025 2.31215,-5.425407 2.04826,-2.063799 4.73759,-3.227677 7.97965,-3.453401 1.34026,-0.09331 2.37519,-0.0042 4.41006,0.379778 3.3815,0.638069 5.13964,0.2853 6.79069,-1.362549 0.83957,-0.837938 1.32183,-1.737435 1.54097,-2.874176 0.13345,-0.692257 0.13349,-0.783018 5.5e-4,-1.425905 -0.33251,-1.608059 -1.30195,-3.006934 -2.75525,-3.97576 l -0.19432,-0.129544 0.55369,-0.486112 0.55368,-0.486111 0.61431,0.361355 c 0.72044,0.42379 2.36391,1.532709 3.31572,2.237249 4.31565,3.194519 8.29352,7.880187 10.29921,12.131785 0.7029,1.489984 1.18104,3.256968 1.18104,4.364578 0,1.772619 -0.73327,3.602279 -1.9816,4.944469 -1.06572,1.14586 -2.41006,1.92069 -3.8604,2.225 -0.782,0.16408 -1.13357,0.16864 -12.65767,0.16414 -11.08709,-0.004 -11.89986,-0.0145 -12.573,-0.15724 z m 13.99278,0.0243 c -0.0573,-0.0232 -0.17162,-0.0246 -0.254,-0.003 -0.0824,0.0215 -0.0355,0.0404 0.10422,0.0422 0.1397,0.002 0.2071,-0.0158 0.14978,-0.039 z m 6.28489,-3.50046 c 0.0843,-0.0931 0.13419,-0.16933 0.11091,-0.16933 -0.0233,0 -0.1113,0.0762 -0.19558,0.16933 -0.0843,0.0931 -0.13419,0.16933 -0.11091,0.16933 0.0233,0 0.11129,-0.0762 0.19558,-0.16933 z m 2.89417,-6.281209 c -0.027,-0.06754 -0.0471,-0.04748 -0.0512,0.05115 -0.004,0.08925 0.0163,0.139259 0.0445,0.111125 0.0281,-0.02813 0.0311,-0.101159 0.007,-0.162278 z M 57.908694,51.63217 c -4.98268,-3.158328 -9.03239,-6.986217 -11.84912,-11.200105 -0.74951,-1.121278 -1.80876,-3.206237 -2.15556,-4.24284 -0.76148,-2.276134 -0.56897,-5.079309 0.48033,-6.994163 0.9111,-1.662644 2.12235,-2.724564 3.86289,-3.386655 1.30756,-0.497387 0.78962,-0.479359 13.77179,-0.479359 13.52093,0 12.27866,-0.0642 13.88533,0.717573 1.49743,0.728612 2.49198,1.725836 3.25302,3.26176 0.70262,1.418019 0.97025,2.822825 0.84196,4.419389 -0.22105,2.750901 -2.452,5.483515 -5.74835,7.040964 -2.79737,1.321689 -5.63676,1.655328 -9.01463,1.059255 -1.63768,-0.288993 -3.00481,-0.345346 -3.97933,-0.164029 -2.19823,0.408999 -3.89577,1.975797 -4.31763,3.985089 -0.17507,0.833877 -0.15782,1.294667 0.0761,2.03115 0.38163,1.201744 1.18329,2.302455 2.26006,3.103154 0.47,0.349492 0.5694,0.460621 0.48241,0.539344 -0.0603,0.05453 -0.30062,0.273477 -0.53414,0.48654 l -0.42459,0.387387 z"
       id="path2" />
    <path
       style="fill:#42a5f5;fill-opacity:1"
       d="m 48.948854,76.704066 c -1.46378,-0.30893 -2.42662,-0.82757 -3.46811,-1.86815 -1.41668,-1.41545 -2.12243,-3.1221 -2.13559,-5.164257 -0.0135,-2.102512 0.70119,-3.804247 2.26155,-5.384564 1.6253,-1.646087 3.67827,-2.729219 6.18817,-3.264831 0.79571,-0.169805 1.16455,-0.197225 2.6595,-0.197706 1.66788,-5.37e-4 1.80345,0.01239 3.47133,0.33093 2.72824,0.521058 3.99021,0.459856 5.48736,-0.266123 0.50055,-0.24272 0.81823,-0.48239 1.37478,-1.037181 1.01831,-1.015077 1.55468,-2.098485 1.66105,-3.355088 0.14249,-1.683345 -1.1011,-3.908201 -2.74587,-4.912531 l -0.27635,-0.168743 0.55589,-0.491078 0.26837,-0.169053 0.51329,0.344022 c 2.30911,1.547639 3.67363,3.841793 3.80323,4.018216 1.57237,2.141005 2.8908,5.175018 3.33163,7.666866 0.35295,1.99509 0.20758,4.234809 -0.39979,6.159654 -0.51053,1.617917 -1.65083,3.455337 -2.94598,4.746997 -1.41545,1.41164 -2.81371,2.22891 -4.5679,2.6699 -1.94237,0.48829 -2.27094,0.50753 -8.55821,0.50102 -5.20393,-0.005 -5.82535,-0.0206 -6.47796,-0.1583 z m 9.81185,-25.378251 c -1.73664,-1.192889 -3.44342,-2.808154 -4.59098,-4.344816 -1.56272,-2.092578 -2.69894,-4.545475 -3.15855,-6.818738 -0.23304,-1.152634 -0.21208,-3.672969 0.0403,-4.838881 0.54771,-2.530738 1.82914,-4.968187 3.48761,-6.633892 1.37678,-1.382787 2.51207,-2.107529 4.17091,-2.662614 2.0214,-0.6764 1.78459,-0.656544 8.31742,-0.697443 4.97093,-0.03112 5.97066,-0.01708 6.70485,0.09419 2.89501,0.438732 5.05547,2.389577 5.9056,5.33263 0.30364,1.051181 0.3813,2.612193 0.17955,3.609416 -0.76165,3.76489 -4.84208,6.977459 -9.69417,7.632341 -1.20898,0.163175 -3.35605,0.117948 -4.5775,-0.09642 -2.05599,-0.360841 -3.2492,-0.43111 -4.28128,-0.252126 -1.72871,0.299793 -3.34947,1.464896 -4.06275,2.920544 -0.50427,1.029117 -0.58146,2.436676 -0.1869,3.40827 0.52972,1.304414 1.35072,2.287571 2.68221,3.212006 0.0471,0.03267 -0.344,0.44739 -0.42187,0.44739 -0.0332,0 -0.2647,-0.140333 -0.5144,-0.311851 z"
       id="path1"
       sodipodi:nodetypes="cscsssssssscccscsssscccssscsssssssssssssss" />
  </g>
</svg>
